<?xml version="1.0" encoding="utf-8"?>
<svg version="1.1" xmlns="http://www.w3.org/2000/svg" xmlns:xlink="http://www.w3.org/1999/xlink" x="0px" y="0px"
	 viewBox="0 0 94 94" style="enable-background:new 0 0 94 94;" xml:space="preserve">
<circle fill="#645BFF" cx="47" cy="47" r="47"/>
<path fill="#FFFFFF" d="M43.5,37.5c0-2.1,1.7-2.9,4.6-2.9c4.1,0,9.2,1.2,13.3,3.4V25.5c-4.4-1.8-8.8-2.5-13.3-2.5
	C37.2,23,30,28.7,30,38.2c0,14.8,20.3,12.4,20.3,18.8c0,2.5-2.1,3.3-5.1,3.3c-4.4,0-10.1-1.8-14.6-4.3v12.7c5,2.1,10,3.1,14.6,3.1
	c11.1,0,18.8-5.5,18.8-15.1C63.9,40.7,43.5,43.5,43.5,37.5z"/>
</svg>
